PathFileType	4	(X/Y/Z)	Kaydara	
DataRate	CameraRate	NumFrames	NumMarkers	Units	OrigDataRate	OrigDataStartFrame	OrigNumFrames	
120.00	120.00	4	72	mm	120.00	101	268	
Frame#	Time	Hips			RightUpLeg			RightLeg			RightFoot			RightFoot_End			LeftUpLeg			LeftLeg			LeftFoot			LeftFoot_End			Spine			Spine1			Spine2			Spine3			Neck			Head			Head_End			RightShoulder			RightArm			RightForeArm			RightHand			RightHandThumb1			RightHandThumb2			RightHandThumb3			RightHandThumb3_End			RightInHandIndex			RightHandIndex1			RightHandIndex2			RightHandIndex3			RightHandIndex3_End			RightInHandMiddle			RightHandMiddle1			RightHandMiddle2			RightHandMiddle3			RightHandMiddle3_End			RightInHandRing			RightHandRing1			RightHandRing2			RightHandRing3			RightHandRing3_End			RightInHandPinky			RightHandPinky1			RightHandPinky2			RightHandPinky3			RightHandPinky3_End			LeftShoulder			LeftArm			LeftForeArm			LeftHand			LeftHandThumb1			LeftHandThumb2			LeftHandThumb3			LeftHandThumb3_End			LeftInHandIndex			LeftHandIndex1			LeftHandIndex2			LeftHandIndex3			LeftHandIndex3_End			LeftInHandMiddle			LeftHandMiddle1			LeftHandMiddle2			LeftHandMiddle3			LeftHandMiddle3_End			LeftInHandRing			LeftHandRing1			LeftHandRing2			LeftHandRing3			LeftHandRing3_End			LeftInHandPinky			LeftHandPinky1			LeftHandPinky2			LeftHandPinky3			LeftHandPinky3_End			
		X1	Y1	Z1	X2	Y2	Z2	X3	Y3	Z3	X4	Y4	Z4	X5	Y5	Z5	X6	Y6	Z6	X7	Y7	Z7	X8	Y8	Z8	X9	Y9	Z9	X10	Y10	Z10	X11	Y11	Z11	X12	Y12	Z12	X13	Y13	Z13	X14	Y14	Z14	X15	Y15	Z15	X16	Y16	Z16	X17	Y17	Z17	X18	Y18	Z18	X19	Y19	Z19	X20	Y20	Z20	X21	Y21	Z21	X22	Y22	Z22	X23	Y23	Z23	X24	Y24	Z24	X25	Y25	Z25	X26	Y26	Z26	X27	Y27	Z27	X28	Y28	Z28	X29	Y29	Z29	X30	Y30	Z30	X31	Y31	Z31	X32	Y32	Z32	X33	Y33	Z33	X34	Y34	Z34	X35	Y35	Z35	X36	Y36	Z36	X37	Y37	Z37	X38	Y38	Z38	X39	Y39	Z39	X40	Y40	Z40	X41	Y41	Z41	X42	Y42	Z42	X43	Y43	Z43	X44	Y44	Z44	X45	Y45	Z45	X46	Y46	Z46	X47	Y47	Z47	X48	Y48	Z48	X49	Y49	Z49	X50	Y50	Z50	X51	Y51	Z51	X52	Y52	Z52	X53	Y53	Z53	X54	Y54	Z54	X55	Y55	Z55	X56	Y56	Z56	X57	Y57	Z57	X58	Y58	Z58	X59	Y59	Z59	X60	Y60	Z60	X61	Y61	Z61	X62	Y62	Z62	X63	Y63	Z63	X64	Y64	Z64	X65	Y65	Z65	X66	Y66	Z66	X67	Y67	Z67	X68	Y68	Z68	X69	Y69	Z69	X70	Y70	Z70	X71	Y71	Z71	X72	Y72	Z72	

101	0.833	1446.805	859.65103	-201.189	1520.410639567974	852.4321389952044	-233.12265229058815	1398.0515156101092	457.58081565895424	-277.9262151707442	1448.9405739175254	53.437704465943135	-356.24263330195487	1388.6505323433842	-30.87043236512582	-203.78622384196112	1381.906651590975	838.8099970205617	-155.5099977660721	1259.5704525640551	444.16816046140923	-90.18541580609048	1199.0371186685854	68.04735775806917	77.98769166939375	1240.7560960822796	21.556340166081313	256.3289533574474	1404.2310736547356	982.6464433229146	-259.380755710299	1353.0526774344062	1050.5900545520183	-305.23185537168746	1293.5610602796553	1115.6389201047327	-353.21886609193876	1228.6528811705577	1169.3174280436322	-399.6039818754753	1158.4419297939805	1226.8671317531866	-445.54976685054	1116.7638485092632	1299.7836539109737	-402.97069513016714	1093.455488818526	1386.8955234656876	-272.2942591916486	1197.6130530760465	1214.09029143858	-446.9103516012702	1263.9032359384569	1218.543178345169	-510.44606945966166	1345.8857653215405	1023.1047345238449	-515.0278303137552	1430.0688649656759	962.6405456656984	-598.7613028866119	1434.6921741332865	975.8116727615053	-607.9425912972398	1430.3810402950548	982.4805486773029	-623.3492220475486	1428.5213895896231	984.6205439362927	-633.6813615877741	1427.9485416730272	984.2622842445442	-641.955178596883	1440.6231387498344	968.0509120178319	-606.7486918731058	1454.8807364799923	966.9977225086834	-620.1384821277754	1457.266783274226	966.2235234936901	-632.731008277178	1452.5766428596276	967.8411722157327	-641.6416089265645	1444.5303770495084	970.5959245744336	-649.746633888235	1442.876447761908	961.2745503812537	-605.3584386578415	1458.0038352242132	956.5819924258396	-617.6655095690375	1460.8491485997024	954.8464196096611	-631.1836864418689	1455.3066206230742	956.3706139629815	-641.8270958803636	1446.558913046458	959.1770039211926	-650.6434864466908	1444.1914109069135	956.4977806978239	-604.0013620128564	1459.1440684285312	948.0984257295347	-613.7558313088331	1461.8462575225349	945.6828234737151	-625.2915925376966	1456.6180374567757	946.6735511337712	-635.4269754974335	1448.4488891902975	949.0850613494995	-643.654511338575	1444.609938026067	951.1500951627498	-602.3107164835757	1458.878390726932	940.0948667830232	-610.108179062069	1461.3230054589662	936.7887068789623	-618.918361966556	1457.6453598267437	936.8477464315066	-626.104485858009	1450.4870042726266	938.6020359742671	-633.2738096016616	1165.3475585680587	1204.1372469677917	-412.0446896228177	1119.633196994882	1147.0145925236286	-351.1045147955192	1214.2357579383845	1031.4907926055462	-493.3272935839429	1373.3347237331332	987.2820876645799	-474.31803910828427	1370.1961327455006	1002.3347052583888	-479.3937366780212	1377.8314470208534	1003.856795451555	-501.36583963406025	1383.3786924578878	1002.6694761953207	-518.592180043211	1388.1999403215004	999.7571611056392	-534.5997748808475	1369.6534725369982	996.5146622494403	-485.8119465224373	1369.55491334582	998.5865641619071	-514.6238588576588	1375.250912007365	995.4620407978019	-539.7375547138682	1381.776610281143	992.6828943868406	-554.3263209782921	1389.1910592969723	989.8182628702966	-565.7104314029172	1370.5564746272003	990.1132039948538	-490.2853769266825	1370.9471282184463	988.6728183355461	-520.8058818133351	1377.289271280033	984.4062552697525	-548.7130437538561	1385.2230776162205	980.6420315954692	-566.5552848153189	1393.3653822117367	977.3076562399541	-579.128939911979	1371.1399123072563	985.5697811622354	-492.67752032608684	1371.8295614866681	980.4287811045865	-522.0097055016814	1377.4868867709915	975.8359225605689	-546.8002066877792	1385.2084476032005	971.7408243610711	-564.2582088331897	1392.8968471479686	968.3856991425386	-576.1980076402942	1372.2646253879575	980.0204464611109	-494.8606174706147	1373.399096527416	971.9923457070238	-523.0080368704164	1378.1286893050974	966.9730259019326	-543.4594963835284	1383.8572931555013	963.3370989194985	-556.4837440154902	1390.723491502893	959.9915235481508	-567.2275481920451
102	0.842	1446.805	859.65103	-201.189	1520.028368521845	852.3280185634499	-233.15488602869843	1398.1498526155112	457.372763131679	-277.72967384813074	1449.47161041462	53.676492122242934	-356.6404071708044	1389.7109158474557	-30.810086905109575	-204.37193916784472	1382.2671106948292	838.9045848400507	-155.48434512571947	1259.9264930216018	444.3140973267179	-89.92024629520857	1199.245996525077	68.1805985699239	78.15896280662847	1241.2003917005318	21.66149738890475	256.40929163296164	1404.349597599311	982.6947445306137	-259.34962920236285	1353.24060078161	1050.7212096063436	-305.14736632639386	1293.8348047733014	1115.8837786579452	-353.07550303907357	1229.0131135931244	1169.696529291269	-399.40414016049084	1158.8922145169945	1227.3847984803463	-445.2850819596417	1117.20176652797	1300.3139865448477	-402.76144680757204	1093.9030935565304	1387.4812528742168	-272.14658901317796	1197.9369876708129	1214.5302414357068	-446.6044842784066	1263.8990875747238	1218.9156567264454	-509.88253125825446	1346.1168320951879	1024.035388918893	-514.0120952663835	1430.164351782775	964.7688957825154	-597.5835547869101	1434.9263153211132	978.0684897193614	-606.7201147003445	1430.7591399970704	984.8149670827189	-622.1371312671125	1428.9808491371186	986.9942140379736	-632.4859936423641	1428.4596987003638	986.6560148100027	-640.781869881585	1440.7975079966268	970.2687100884407	-605.553062656968	1455.1263691035506	969.2876354347459	-618.9639722496947	1457.5876248832772	968.55162448369	-631.5875478616042	1452.9681519278963	970.1928795255409	-640.5170407127648	1444.996515126078	972.9670826367484	-648.6374364603469	1442.9981926716173	963.4490355659038	-604.188659632817	1458.1666246329796	958.8033738596496	-616.5303103586508	1461.0868612326844	957.1035064616317	-630.0857132994649	1455.6261634415766	958.6533183868221	-640.7535345484199	1446.958439577997	961.4796076812838	-649.5875310554975	1444.2737817873874	958.6398558364912	-602.8492050505237	1459.227972648762	950.2545121244356	-612.6496701935882	1461.988104079654	947.8638666246621	-624.2212604626983	1456.834905551324	948.8760310090207	-634.3819859147151	1448.7391192991515	951.3046900263585	-642.6269271532963	1444.6477864038507	953.2524220749335	-601.1790466993617	1458.8889675604444	942.1856958700598	-609.0309878253272	1461.368495325328	938.8898262715501	-617.8749389231976	1457.7400174418544	938.9598057273282	-625.0820090020106	1450.6434368395694	940.7266012651218	-632.2681677260335	1165.8669892006367	1204.6329729183935	-411.87473915604704	1120.426313751253	1147.7428307476619	-351.2249817106769	1214.7424849023807	1032.5216622048513	-492.7572107402788	1373.142842337944	988.8334904176311	-473.64614898018044	1370.1340244389241	1004.020607590804	-478.6957104068631	1377.8491037483373	1005.5817960434998	-500.54619656653813	1383.4417101952104	1004.4163974494336	-517.6843381645655	1388.2920796356364	1001.5177935810337	-533.6154340784517	1369.570622597256	998.204161545654	-485.10707343736743	1369.5843003242553	1000.4226828380384	-513.8207285387177	1375.3378987873893	997.345037888325	-538.8230106050396	1381.887716315657	994.5577079931206	-553.3293407711777	1389.314244826896	991.6611263576473	-564.636355969601	1370.4410660703275	991.7805284895344	-489.5723892726575	1370.9235799768073	990.4711633246551	-519.9926771179373	1377.3238853447606	986.2522759364657	-547.7774633424945	1385.2845365933526	982.4765108717902	-565.5198590978654	1393.4389717472454	979.1063723610785	-578.0089612080443	1370.9987949083525	987.2182432318865	-491.96170192698366	1371.7489417726047	982.1799175716342	-521.2027673114475	1377.4520081459987	977.6248542860928	-545.8859308183027	1385.1968548337686	973.5166238585113	-563.2472798418811	1392.895421187239	970.1269179276517	-575.1074099180817	1372.089328632835	981.6385520054457	-494.1412604054776	1373.2588071568134	973.6878203401677	-522.2042289353363	1378.0170718740505	968.6924423509514	-542.5690882537483	1383.7587968795674	965.0438838786743	-555.522524845102	1390.6317807740486	961.6659213005505	-566.1955655861806
103	0.85	1446.805	859.65103	-201.189	1519.6440931325737	852.2274549648602	-233.18699864150346	1398.2401664491906	457.1726979553019	-277.5654791442048	1450.0146704360764	53.92540143822938	-357.0580848681187	1390.7890184481612	-30.737989689899642	-204.97534997063988	1382.6307582631239	838.9959707801167	-155.45881525149852	1260.271301321133	444.4616216887971	-89.65332791776044	1199.4596075067816	68.32883128300274	78.35697861873592	1241.6772749550407	21.785179675527786	256.51003804105295	1404.4630056524957	982.7412180684763	-259.3184891065457	1353.408454047728	1050.8416698743015	-305.0605341145375	1294.070531704683	1116.1057376025672	-352.9262790586906	1229.3149884400298	1170.0361894544515	-399.19289453804095	1159.2624673019286	1227.8451444198809	-445.0028012809117	1117.5509308913108	1300.7806938894948	-402.529963085597	1094.264809995985	1388.004177312247	-271.9766576138134	1198.1818753369407	1214.9231712496783	-446.2879116065603	1263.8058434429968	1219.2528674522898	-509.31171060447326	1346.2646676671116	1024.9415450017052	-512.9886728433934	1430.16723934081	966.8341445262755	-596.3956199924279	1435.0175044875439	980.3026895368351	-605.4460136609979	1430.9781001168683	987.1702471365894	-620.8483795564737	1429.2774171335634	989.4220152255232	-631.1993644898763	1428.8112254926457	989.1341893255874	-639.5075439246684	1440.8495198005148	972.4799103669536	-604.3107076295199	1455.2395063671152	971.6618748206627	-617.7035513778513	1457.7781099783617	971.0192395653098	-630.33849496611	1453.2303589438136	972.7044707467104	-639.2795887880801	1445.3340066685423	975.5055871871747	-647.4126253852403	1443.0187996834584	965.6215432844568	-602.9815650468279	1458.2298573742303	961.113975733124	-615.3246657565276	1461.230192687296	959.5103414273901	-628.8972176439461	1455.853956433079	961.1104934130849	-639.5813080331812	1447.2676093579196	963.9649109088144	-648.4302407482942	1444.2702280259637	960.7810195468668	-601.6673201307434	1459.2404283669212	952.492707732966	-611.4904708293211	1462.065918653985	950.1799213976208	-623.0818595982183	1456.99182133926	951.237454036019	-633.2608426664102	1448.9714254599317	953.6910509567002	-641.521054165659	1444.617878491114	955.3514840388578	-600.0280480851502	1458.8561406662777	944.3483859186853	-607.9192768808542	1461.3809860481297	941.105073319768	-616.7865489605608	1457.806804275962	941.2034188647654	-624.0105381389305	1450.7750594490544	942.9895735206098	-631.2122963683953	1166.319823564721	1205.0727750006024	-411.6843671740558	1121.1551674118894	1148.4211794569992	-351.3049770389778	1215.191419467363	1033.5105591850793	-492.13708105887997	1372.8874888410837	990.3464081412225	-472.9249336868579	1370.0022957433775	1005.6722242895893	-477.9400637359018	1377.7913143636529	1007.282184085069	-499.66824578700584	1383.4252353687716	1006.1459511310187	-516.7181286697203	1388.3013300449315	1003.2675784098683	-532.5729854148477	1369.4174394146376	999.8614100935065	-484.3444245182819	1369.5334913683394	1002.239294486128	-512.9517886619518	1375.3385931249056	999.2189235436397	-537.841291555445	1381.9099427926717	996.4293044859485	-552.2669958443233	1389.3472305384098	993.5052750809286	-563.5001642860765	1370.255680685696	993.4166636588325	-488.80316728471155	1370.8206523422014	992.2513468346855	-519.1162380178445	1377.2725531555325	988.0916015497698	-546.7773912247759	1385.2569785494761	984.3114571429173	-564.4222329073554	1393.4221062485751	980.9104904131793	-576.8303973284216	1370.788209707567	988.8359580928816	-491.19089490064414	1371.590820665806	983.9123116080042	-520.3355429048179	1377.3340362177025	979.405115176286	-544.9105298134276	1385.0992315376538	975.2907144266798	-562.177544852172	1392.8066398360725	971.871090700962	-573.9614744856441	1371.8455218225572	983.2261141340707	-493.36894636298473	1373.0431877080202	975.3638608573235	-521.3436829806119	1377.8258105241202	970.4005695054371	-541.6216835264568	1383.5786298311368	966.744494004657	-554.5061948623836	1390.4572759550786	963.3382995770623	-565.1116769684118
104	0.858	1446.805	859.65103	-201.189	1519.2576809734787	852.122274036516	-233.22763870278692	1398.3256318091053	456.9686269213129	-277.4034809283329	1450.529999478919	54.17063690294174	-357.49273122905646	1391.841932948601	-30.669425522357905	-205.59568546705688	1382.996453755725	839.0922892993807	-155.42399733768454	1260.5931044411732	444.62526335068077	-89.35257744623794	1199.639067481597	68.50020772136398	78.59628593158696	1242.1306631991356	21.90532682117587	256.64619457715236	1404.5769557602125	982.7866473412937	-259.29017903851764	1353.5755088299034	1050.9593130958187	-304.97780625395336	1294.3037581335511	1116.322730672365	-352.7821280869081	1229.6123275995858	1170.368255990295	-398.98717757652986	1159.6261111484544	1228.295414294492	-444.7262445835573	1117.8847939406776	1301.2339316857144	-402.3040231701686	1094.6100608778197	1388.5066569395449	-271.8083254599002	1198.4200215138796	1215.3052911963634	-445.9799247914349	1263.7023332704168	1219.6161881480089	-508.70361475710746	1346.3971855706227	1025.8722043394687	-511.9256408065212	1430.0993316158147	969.0837086328822	-595.1437233330282	1435.001481801576	982.7456192855383	-604.0750662529122	1431.0788300326553	989.76506174985	-619.4420166352772	1429.4532437822077	992.1134593531323	-629.7825975875958	1429.044352103288	991.8983461856476	-638.0942733893168	1440.8080550278407	974.9122501968947	-602.9742988130868	1455.2497729512243	974.3201046684688	-616.3152012760258	1457.8667553286302	973.8106507268078	-628.9440928259206	1453.3920414879572	975.5554474520519	-637.8903358179447	1445.5725386913537	978.3901660094733	-646.0336680421578	1442.960651386779	968.0199676906234	-601.6871475993651	1458.2131318057236	963.714390514305	-614.0022965165325	1461.2966845165627	962.2508619772586	-627.5739889014695	1456.0074526313992	963.9203531119311	-638.2670488756	1447.5046549940346	966.810321644966	-647.1285896473771	1444.1985134187503	963.149939818734	-600.4036696307522	1459.192711842815	955.0177297468576	-610.2278420795279	1462.0883116319876	952.8213771230347	-621.8243918073885	1457.0968499132166	953.9427864788476	-632.0151877148969	1449.1544007658945	956.428380822125	-640.288742539518	1444.532661084938	957.6780660739722	-598.8031226606427	1458.7830817991994	946.7928772438456	-606.7183932750463	1461.3601688490103	943.6332673425479	-615.599031601609	1457.8443863969958	943.7735950458293	-622.8361088057472	1450.8806021447829	945.5854407502384	-630.0522579360667	1166.767823720908	1205.5051277093685	-411.4968462457868	1121.8750455094464	1149.0945837579025	-351.4037509231186	1215.6262705775666	1034.4931921078369	-491.5333349726296	1372.6030068395537	991.8462232396655	-472.1523761513645	1369.8401787342302	1007.3103270492728	-477.1366275963347	1377.695650366882	1008.9690805962849	-498.7491096235038	1383.3646750353819	1007.8622676266041	-515.7146477139775	1388.2604856805517	1005.0045101633145	-531.4959800156595	1369.230460043826	1001.5058767142615	-483.53144884871534	1369.4369748862293	1004.0443123094271	-512.0337039502069	1375.2838942818505	1001.0819554577403	-536.8138561286365	1381.8717319487237	998.2901666030872	-551.1629139064543	1389.3162395637567	995.3385368435717	-562.3268119373437	1370.0341752980491	995.0405579894023	-487.9818828224383	1370.6686993582314	994.0207322098936	-518.1879607130167	1377.1613568314056	989.9209772493336	-545.7289953449089	1385.1633298253487	986.1366325664017	-563.2809916932429	1393.3352149416128	982.7047103609085	-575.6131778290074	1370.5401605562724	990.4417639432868	-490.3667567128291	1371.3825355043775	985.6344211470338	-519.413971033598	1377.1561668070822	981.1759041789505	-543.8836130431832	1384.9355803244378	977.05552326606	-561.0607324923441	1392.6480674585691	973.6058994913194	-572.773050587001	1371.5629938459977	984.8021192308797	-492.5420132760916	1372.7764341292198	977.0300405530656	-520.4267242761264	1377.5753015905789	972.0995960477251	-540.619770801145	1383.3345589452529	968.4361906290932	-553.4384213457631	1390.215443099902	965.0016938061902	-563.9802986194442
